<?xml version="1.0" encoding="UTF-8"?>
<svg width="469px" height="372px" viewBox="0 0 469 372" version="1.1" xmlns="http://www.w3.org/2000/svg" xmlns:xlink="http://www.w3.org/1999/xlink">
    <!-- Generator: Sketch 55.2 (78181) - https://sketchapp.com -->
    <title>ahmsa-logo</title>
    <desc>Created with Sketch.</desc>
    <g id="ahmsa-logo" stroke="none" stroke-width="1" fill="none" fill-rule="evenodd">
        <polygon id="Fill-7" fill="#2D509F" points="13 231 459 231 459 142 13 142"></polygon>
        <path d="M76.7574647,218.636473 L52,218.636473 L74.753508,153.354475 L100.170958,153.354475 L122.920467,218.636473 L98.1670018,218.636473 L96.1520454,210.561594 L78.7494216,210.561594 L76.7574647,218.636473 Z M90.804161,193.7339 L88.1362187,182.296499 C87.4682331,179.604873 87.4682331,176.913246 86.7962476,173.550725 L86.132262,173.550725 L81.4453633,193.7339 L90.804161,193.7339 Z M131.627278,153.347434 L154.380786,153.347434 L154.380786,175.565421 L168.423483,175.565421 L168.423483,153.347434 L191.168991,153.347434 L191.168991,218.636473 L168.423483,218.636473 L168.423483,195.749602 L154.380786,195.749602 L154.380786,218.636473 L131.627278,218.636473 L131.627278,153.347434 Z M209.2396,153.347434 L233.324079,153.347434 L242.031891,187.678746 L242.691877,187.678746 C243.363862,184.988126 243.363862,181.620575 244.034848,178.920902 L251.386689,153.347434 L275.484168,153.347434 L285.530951,218.624403 L263.441428,218.624403 L260.093501,182.952306 L259.433515,182.952306 C259.433515,184.976055 258.769529,187.667682 258.101544,189.683384 L248.714747,218.624403 L235.340036,218.624403 L226.641224,191.034226 C225.969239,188.343606 225.301253,185.65198 225.301253,182.952306 L224.629267,182.952306 C224.629267,185.643933 224.629267,188.331536 223.957282,191.034226 L221.28234,218.624403 L198.539832,218.624403 L209.2396,153.347434 Z M318.963228,222 C310.276416,222 300.229633,219.984298 292.213806,215.944846 L299.565647,195.761672 L300.916618,197.108491 C305.588517,200.476041 310.947401,203.839569 316.967271,203.839569 C319.643213,203.839569 323.658126,202.491744 323.658126,199.136263 C323.658126,196.444637 320.315199,195.768713 317.639256,195.093795 L312.951358,194.41787 C302.920575,192.394121 294.217763,187.010869 294.217763,175.573468 C294.217763,159.421698 309.60443,150 324.330112,150 C332.364938,150 339.720779,152.022743 346.411634,156.054148 L339.720779,174.225643 C335.571869,170.77662 330.372981,168.870554 324.994097,168.83535 C322.998141,168.83535 319.654213,169.50725 319.654213,172.210947 C319.654213,174.890503 322.998141,175.573468 324.994097,175.573468 L330.353982,176.913246 C341.07175,179.604873 349.087576,184.995166 349.087576,197.108491 C349.075577,213.929144 333.689909,222 318.963228,222 Z M375.177012,218.636473 L351.079533,218.636473 L373.161056,152.679556 L398.578506,152.679556 L422,218.636473 L397.246535,218.636473 L395.231579,210.561594 L377.168969,210.561594 L375.177012,218.636473 Z M390.56368,195.085748 L387.887738,183.648347 C387.227752,180.280797 387.227752,177.58917 386.555766,174.890503 L385.875781,174.890503 L381.203882,195.085748 L390.56368,195.085748 Z" id="Fill-8" fill="#FFFFFF"></path>
        <path d="M329.447617,132.577067 C329.447617,132.577067 302.036214,78.9949836 237.837771,78.9949836 C202.396816,78.9949836 166.955862,96.4148915 145.560378,132.577067 L68.6675471,132.577067 C91.4061197,60.2377009 158.266757,8 237.837771,8 C317.412782,8 384.273419,60.2377009 407,132.577067 L329.447617,132.577067 Z M329.447617,240.410921 C329.447617,241.079608 302.036214,293.993004 237.837771,293.993004 C202.396816,293.993004 166.292312,276.573096 145.560378,240.410921 L68,240.410921 C90.7265808,312.758295 158.266757,365 237.837771,365 C316.741238,365 384.273419,312.758295 407,240.410921 L329.447617,240.410921 Z" id="Fill-9" fill="#EBB53B"></path>
    </g>
</svg>