<svg xmlns="http://www.w3.org/2000/svg" viewBox="0 0 38.13 55.88"><defs><style>.cls-1{fill:#1d8ac8;}.cls-2{fill:#117ab7;}.cls-3{fill:#0c4a73;}.cls-4{fill:#0270b1;}.cls-5{fill:#0e6494;}.cls-6{fill:#0c3d61;}</style></defs><title>Asset 1</title><g id="Layer_2" data-name="Layer 2"><g id="Front"><polyline class="cls-1" points="29.72 8.34 38.04 16.65 29.49 19.03"/><polyline class="cls-2" points="29.72 8.34 24.26 13.8 29.49 19.03"/><polyline class="cls-3" points="29.72 8.34 21.41 0.02 19.03 8.58"/><polyline class="cls-4" points="21.43 0 19.06 8.55 16.68 0"/><polyline class="cls-5" points="29.72 8.34 24.26 13.8 19.03 8.58"/><polyline class="cls-1" points="8.36 29.7 16.67 38.02 19.05 29.47"/><polyline class="cls-2" points="8.36 29.7 13.82 24.24 19.05 29.47"/><polyline class="cls-3" points="8.36 29.7 0.04 21.4 8.59 19.01"/><polyline class="cls-5" points="8.36 29.7 13.82 24.24 8.59 19.01"/><polyline class="cls-1" points="29.73 29.68 38.05 21.37 29.5 18.99"/><polyline class="cls-2" points="29.73 29.68 24.27 24.22 29.5 18.99"/><polyline class="cls-3" points="29.73 29.68 21.43 38 19.04 29.45"/><polyline class="cls-5" points="29.73 29.68 24.27 24.22 19.04 29.45"/><polyline class="cls-1" points="8.37 8.32 16.68 0 19.06 8.55"/><polyline class="cls-2" points="8.37 8.32 13.83 13.78 19.06 8.55"/><polyline class="cls-3" points="8.37 8.32 0.05 16.63 8.61 19.01"/><polyline class="cls-5" points="8.37 8.32 13.83 13.78 8.61 19.01"/><polyline class="cls-4" points="16.69 38.1 19.06 29.55 21.44 38.1"/><polyline class="cls-1" points="29.81 8.43 38.13 16.74 29.57 19.12"/><polyline class="cls-2" points="29.81 8.43 24.35 13.89 29.57 19.12"/><polyline class="cls-1" points="8.36 29.79 16.67 38.11 19.05 29.56"/><polyline class="cls-2" points="8.36 29.79 13.82 24.33 19.05 29.56"/><polyline class="cls-3" points="8.36 29.79 0.04 21.48 8.59 19.1"/><polyline class="cls-5" points="8.36 29.79 13.82 24.33 8.59 19.1"/><polyline class="cls-1" points="29.73 29.77 38.05 21.46 29.5 19.08"/><polyline class="cls-2" points="29.73 29.77 24.27 24.3 29.5 19.08"/><polyline class="cls-3" points="29.73 29.77 21.43 38.09 19.04 29.53"/><polyline class="cls-5" points="29.73 29.77 24.27 24.3 19.04 29.53"/><polyline class="cls-1" points="8.37 8.4 16.68 0.09 19.06 8.64"/><polyline class="cls-2" points="8.37 8.4 13.83 13.87 19.06 8.64"/><polyline class="cls-3" points="8.37 8.4 0.05 16.71 8.61 19.09"/><polyline class="cls-5" points="8.37 8.4 13.83 13.87 8.61 19.09"/><polyline class="cls-4" points="0 16.66 8.55 19.02 0 21.41"/><polyline class="cls-4" points="38.03 16.75 29.49 19.12 38.04 21.5"/><path class="cls-6" d="M16.23,47.75a6.86,6.86,0,0,0-2.54-5.17A7.42,7.42,0,0,0,9,41c-2.07,0-4.14,0-6.21,0-.24,0-.27.08-.27.29v7c0,2.35,0,4.7,0,7.05,0,.29.09.33.34.33H8.51a8.56,8.56,0,0,0,2-.17,6.81,6.81,0,0,0,5-3.72A7.86,7.86,0,0,0,16.23,47.75Zm-2.94,2.61a4.2,4.2,0,0,1-1.87,2.26A5,5,0,0,1,9,53.33c-1.2,0-2.41,0-3.61,0-.22,0-.2-.11-.2-.25V48.3c0-1.59,0-3.19,0-4.78,0-.2.05-.25.26-.25,1.21,0,2.43-.05,3.64,0a4.49,4.49,0,0,1,4.25,3A5.79,5.79,0,0,1,13.29,50.36Z"/><path class="cls-6" d="M18.72,52a7.27,7.27,0,0,0,3,1.42,6.54,6.54,0,0,0,3.08,0,2.31,2.31,0,0,0,1.09-.55,1.54,1.54,0,0,0-.07-2.38,3.88,3.88,0,0,0-1.33-.63c-1.11-.35-2.26-.59-3.36-1A4.86,4.86,0,0,1,19,47.58a3.57,3.57,0,0,1-.8-2.92,4,4,0,0,1,3.08-3.54,8.58,8.58,0,0,1,6.67.64c.48.25.47.27.28.76s-.37.95-.54,1.43c-.07.19-.11.21-.29.11a7.26,7.26,0,0,0-3.85-1,4.51,4.51,0,0,0-1.59.28,1.8,1.8,0,0,0-1.2,2,1.38,1.38,0,0,0,.6,1,5.27,5.27,0,0,0,1.83.76c1.08.32,2.19.55,3.25,1a5.3,5.3,0,0,1,1.32.77c1.75,1.36,1.54,4.36,0,5.73a5.53,5.53,0,0,1-3.22,1.37A9.77,9.77,0,0,1,19,54.88a4.34,4.34,0,0,1-1-.65c-.07,0-.16-.1-.11-.21Z"/><path class="cls-6" d="M31.52,48.3q0-3.54,0-7.07c0-.2,0-.28.26-.28.7,0,1.4,0,2.11,0,.16,0,.23,0,.23.22q0,7.13,0,14.26c0,.2-.08.23-.25.22-.7,0-1.39,0-2.08,0-.21,0-.27,0-.27-.26Q31.53,51.86,31.52,48.3Z"/></g></g></svg>